<svg width="22" height="22" viewBox="0 0 22 22" fill="none" xmlns="http://www.w3.org/2000/svg">
<path d="M19.3827 8.92577H18.6667V8.88888H10.6667V12.4444H15.6902C14.9573 14.5142 12.988 16 10.6667 16C7.72133 16 5.33333 13.612 5.33333 10.6667C5.33333 7.72133 7.72133 5.33333 10.6667 5.33333C12.0262 5.33333 13.2631 5.84622 14.2049 6.68399L16.7191 4.16977C15.1315 2.69022 13.008 1.77777 10.6667 1.77777C5.75777 1.77777 1.77777 5.75777 1.77777 10.6667C1.77777 15.5756 5.75777 19.5555 10.6667 19.5555C15.5756 19.5555 19.5555 15.5756 19.5555 10.6667C19.5555 10.0707 19.4942 9.48888 19.3827 8.92577Z" fill="#FFC107"/>
<path d="M2.80267 6.52933L5.72312 8.6711C6.51334 6.71466 8.42712 5.33333 10.6667 5.33333C12.0262 5.33333 13.2631 5.84621 14.2049 6.68399L16.7191 4.16977C15.1316 2.69022 13.008 1.77777 10.6667 1.77777C7.25245 1.77777 4.29156 3.70533 2.80267 6.52933Z" fill="#FF3D00"/>
<path d="M10.6667 19.5556C12.9627 19.5556 15.0489 18.6769 16.6262 17.248L13.8751 14.92C12.9527 15.6215 11.8255 16.0009 10.6667 16C8.35466 16 6.39155 14.5258 5.65199 12.4684L2.75333 14.7018C4.22444 17.5804 7.21199 19.5556 10.6667 19.5556Z" fill="#4CAF50"/>
<path d="M19.3827 8.92577H18.6667V8.88889H10.6667V12.4444H15.6902C15.3396 13.4295 14.7081 14.2903 13.8738 14.9204L13.8751 14.9196L16.6262 17.2476C16.4315 17.4244 19.5555 15.1111 19.5555 10.6667C19.5555 10.0707 19.4942 9.48889 19.3827 8.92577Z" fill="#1976D2"/>
</svg>
