<svg width="1300" height="1300" viewBox="0 0 1300 1300" fill="none" xmlns="http://www.w3.org/2000/svg">
<mask id="mask0_409_3739" style="mask-type:alpha" maskUnits="userSpaceOnUse" x="0" y="0" width="1296" height="1296">
<circle cx="647.869" cy="647.869" r="647.869" fill="#D9D9D9"/>
</mask>
<g mask="url(#mask0_409_3739)">
<path d="M1003.04 1182.75C1000.07 1184.87 996.668 1186.99 993.694 1189.12C990.295 1191.24 987.321 1193.37 983.923 1195.07C980.949 1196.76 978.4 1198.46 975.426 1200.16C975.001 1200.59 974.576 1200.59 974.151 1201.01C964.38 1206.96 954.184 1212.48 943.988 1217.58C941.014 1219.28 937.615 1220.98 934.641 1222.26C934.641 1222.26 934.217 1222.68 933.792 1222.68C930.393 1224.38 926.994 1226.08 923.596 1227.78C916.798 1231.18 909.576 1234.15 902.779 1237.12C899.38 1238.82 895.556 1240.1 892.158 1241.37C888.759 1242.65 884.936 1244.35 881.537 1245.62C878.138 1246.9 874.315 1248.59 870.916 1249.87C870.916 1249.87 870.916 1249.87 870.491 1249.87C867.092 1251.14 863.269 1252.42 859.87 1253.69C852.223 1256.24 844.151 1258.79 836.504 1261.34C833.955 1262.19 830.981 1263.04 828.432 1263.89C820.36 1266.44 812.289 1268.56 804.217 1270.26C801.243 1271.11 798.269 1271.54 794.87 1272.39C787.223 1274.09 779.151 1275.78 771.504 1277.48C769.805 1277.91 768.53 1277.91 766.831 1278.33C764.282 1278.76 761.308 1279.18 758.759 1279.61C754.936 1280.03 751.537 1280.88 747.713 1281.31C746.014 1281.73 744.315 1281.73 742.615 1282.16C740.491 1282.58 737.942 1283.01 735.393 1283.01C728.596 1283.86 721.373 1284.71 714.576 1285.56C712.452 1285.98 709.903 1285.98 707.779 1286.41H707.354C704.38 1286.83 701.406 1286.83 698.432 1287.25C695.458 1287.68 692.485 1287.68 689.511 1287.68C687.811 1287.68 685.687 1288.1 683.988 1288.1C680.589 1288.1 677.615 1288.53 674.642 1288.53C670.393 1288.53 666.57 1288.95 662.321 1288.95C658.073 1288.95 654.249 1288.95 650.001 1288.95C647.027 1288.95 644.053 1288.95 641.079 1288.95C461.798 1286.41 300.785 1210.36 185.655 1089.71C185.655 1089.71 185.655 1089.28 185.23 1089.28C172.485 1077.81 183.53 1016.63 234.936 977.974C299.511 929.118 454.151 898.53 454.151 898.53C454.151 898.53 514.053 888.758 736.243 935.066C866.243 962.255 965.23 1001.76 1020.46 1108.82C1031.93 1130.92 1043.4 1164.9 1003.04 1182.75Z" fill="white"/>
<path d="M737.517 930.392C819.086 946.961 906.177 964.804 973.301 1018.76C995.818 1037.03 1010.69 1063.79 1023.01 1089.71C1028.96 1102.45 1034.9 1115.62 1039.58 1129.64C1042.12 1138.99 1045.95 1149.61 1043.82 1160.65C1043.4 1163.63 1040.85 1167.45 1038.73 1169.58C1028.96 1179.35 1018.33 1185.29 1007.71 1192.94C945.262 1236.27 873.465 1266.86 799.118 1283.01C633.432 1319.12 454.151 1291.08 308.432 1203.99C260.001 1174.67 215.393 1138.99 177.158 1096.93C172.909 1091.83 172.909 1083.33 172.909 1077.81C173.334 1065.07 176.733 1052.75 180.981 1041.27C191.177 1014.93 204.347 988.595 226.863 970.327C243.007 959.281 260.426 949.935 278.269 942.288C334.347 918.497 393.399 901.928 454.151 895.131C459.249 894.706 460.099 901.928 455.001 902.778C396.798 914.673 339.02 932.516 285.066 956.732C265.524 966.503 244.707 975 228.988 990.294C214.118 1006.44 203.497 1026.41 195.001 1046.8C189.478 1059.12 185.654 1078.66 187.354 1088.43C214.118 1120.29 245.556 1148.33 279.543 1172.55C465.622 1302.55 748.138 1311.05 946.112 1202.71C963.955 1192.94 981.373 1181.9 997.942 1170.42C1006.01 1164.9 1014.51 1160.23 1020.88 1153.86C1021.31 1153.43 1020.88 1153.86 1020.88 1154.28C1020.88 1154.71 1020.46 1155.13 1020.46 1155.13C1020.88 1150.03 1019.18 1143.24 1017.06 1136.44C1009.41 1111.8 997.092 1085.88 983.922 1063.37C963.105 1029.8 927.844 1008.56 892.158 991.569C867.517 980.098 841.602 971.177 815.262 962.68C788.922 954.183 762.158 946.961 735.393 940.588C728.596 938.889 730.72 929.118 737.517 930.392Z" fill="black"/>
<path d="M1144.09 1446.14H69.6748C69.6748 1446.14 87.0931 1271.11 153.368 1131.34C177.583 1080.36 185.655 1005.59 233.662 972.875C282.943 939.313 387.877 912.548 424.413 908.299C444.805 905.75 440.132 904.051 454.577 900.228C459.25 912.973 506.407 1037.87 619.413 1083.76C716.701 1123.27 774.479 1096.93 783.4 1053.17C788.923 1025.13 771.505 979.247 762.583 964.378C757.485 960.13 754.087 953.757 752.387 947.384L748.988 933.365C756.636 931.665 763.858 929.541 771.505 927.417C775.328 928.267 779.577 927.842 782.975 929.966C818.662 949.509 926.145 977.123 982.224 1036.18C1004.32 1059.12 1038.73 1140.69 1044.25 1193.79C1059.97 1339.51 1144.09 1446.14 1144.09 1446.14Z" fill="white"/>
<path d="M1150.04 1448.69C831.409 1449.54 384.056 1453.37 70.1015 1452.09C66.278 1452.09 63.3041 1448.69 63.729 1444.87C67.5525 1414.71 72.6505 1385.39 78.5982 1355.65C94.3172 1274.51 118.108 1194.64 153.794 1120.29C168.239 1085.46 175.461 1048.92 192.879 1014.93C203.075 994.542 218.369 975 238.762 963.529C271.474 943.987 307.585 931.667 343.696 920.621C365.363 914.248 387.454 908.301 409.546 904.052C420.592 901.503 431.637 901.928 441.834 897.68C447.356 895.556 457.977 889.183 461.376 897.255C492.389 977.549 552.291 1053.59 635.984 1082.06C679.317 1097.78 754.513 1110.95 776.605 1057.84C783.402 1037.88 777.03 1016.21 771.082 996.242C767.683 986.046 763.435 975.425 758.337 966.928L759.611 968.203C751.964 961.83 747.716 951.634 746.441 942.288L744.317 933.791C743.467 930.392 745.592 926.993 748.99 926.144C756.637 924.869 764.284 922.32 771.932 920.196C776.18 920.196 782.977 921.046 788.5 924.02C835.232 945.686 888.337 961.405 932.945 988.595C958.01 1003.46 983.5 1020.88 999.644 1045.95C1029.38 1095.65 1048.5 1152.16 1054.02 1209.51C1065.92 1291.5 1099.06 1370.1 1146.64 1437.65L1148.34 1439.77L1149.19 1440.62L1149.61 1441.05C1149.61 1441.05 1149.61 1440.62 1150.04 1441.9C1150.46 1444.44 1150.46 1447.42 1150.04 1448.69ZM1138.57 1443.17C1137.72 1444.44 1137.72 1447.42 1138.57 1448.69C1139.42 1449.54 1138.99 1449.12 1138.99 1449.12L1138.57 1448.69L1137.72 1447.42L1136.02 1445.29C1109.25 1404.51 1087.16 1360.75 1071.02 1315.29C1058.27 1281.73 1048.92 1246.9 1043.83 1211.21C1042.13 1198.46 1040 1181.47 1037.03 1169.15C1027.26 1128.37 1011.54 1087.58 989.023 1052.32C981.801 1040.85 971.18 1031.93 960.559 1023.43C926.997 997.941 887.487 982.222 848.402 966.928L808.467 952.059C795.298 946.961 779.579 941.438 771.507 933.366H774.905C767.258 935.915 759.611 938.039 751.964 939.739L756.637 932.091L758.762 940.588C760.461 948.235 762.16 955.033 768.108 960.131C768.533 960.556 768.958 960.98 769.383 961.405C780.853 982.222 787.65 1003.89 791.049 1027.25C798.271 1067.61 772.781 1099.48 733.696 1107.12C679.742 1117.75 615.167 1094.38 570.559 1064.22C514.481 1024.71 474.121 966.078 449.481 902.778L457.128 906.601C453.304 907.876 450.755 909.15 446.932 910.85C443.108 912.974 438.435 914.248 434.186 915.098C434.611 917.647 433.337 910 435.036 920.196C426.964 921.046 420.592 921.471 412.945 923.17C391.278 926.569 369.611 931.667 348.369 937.614C319.905 945.261 291.866 954.608 265.526 966.928C252.356 973.301 239.611 980.098 229.84 989.02C219.644 997.941 211.572 1009.84 204.775 1022.58C184.807 1061.24 175.036 1107.55 154.644 1146.63C112.16 1241.37 88.3695 1344.61 76.8989 1447.84L70.5263 1441.05C378.958 1439.77 825.036 1441.47 1138.57 1443.17Z" fill="black"/>
<path d="M799.121 1168.3C784.252 1172.55 732.422 1118.59 721.801 1109.25C712.03 1120.29 643.206 1198.04 609.219 1192.94C571.834 1187.42 476.246 1123.27 427.814 1022.58C401.049 967.353 400.2 933.791 403.174 915.523C404.448 907.026 406.997 901.503 408.272 898.529C412.52 888.758 443.108 850.947 450.755 851.372V851.797C454.579 892.581 467.749 932.091 489.84 966.503C517.03 1008.56 559.938 1059.12 619.84 1083.33C717.128 1122.84 767.683 1083.76 776.18 1040C781.703 1011.96 771.932 978.823 763.01 963.954C757.912 959.706 754.513 953.333 752.814 946.96L749.415 932.941C757.062 931.242 764.285 929.117 771.932 926.993C774.056 926.143 776.605 925.719 778.729 924.869C780.004 926.568 781.703 928.268 782.978 929.967C800.821 950.359 819.514 978.398 829.71 1025.98C846.703 1102.03 815.69 1163.2 799.121 1168.3Z" fill="black"/>
<path d="M720.526 1106.7C720.526 1106.7 751.539 1124.54 750.69 1139.41C749.84 1154.28 758.762 1201.44 758.762 1201.44" stroke="black" stroke-width="3" stroke-miterlimit="10" stroke-linecap="round" stroke-linejoin="round"/>
<path d="M720.101 1163.2C725.732 1163.2 730.297 1158.64 730.297 1153.01C730.297 1147.38 725.732 1142.81 720.101 1142.81C714.47 1142.81 709.905 1147.38 709.905 1153.01C709.905 1158.64 714.47 1163.2 720.101 1163.2Z" fill="black"/>
<path d="M723.499 1203.14C729.13 1203.14 733.695 1198.57 733.695 1192.94C733.695 1187.31 729.13 1182.74 723.499 1182.74C717.868 1182.74 713.303 1187.31 713.303 1192.94C713.303 1198.57 717.868 1203.14 723.499 1203.14Z" fill="black"/>
<path d="M279.969 1446.14L260.852 1288.53" stroke="#544D4D" stroke-width="3" stroke-miterlimit="10" stroke-linecap="round" stroke-linejoin="round"/>
<path d="M1022.16 1235C1022.16 1235 1009.41 1266.01 1013.24 1297.03C1017.06 1328.04 1028.11 1373.5 1012.39 1446.14" stroke="#544D4D" stroke-width="3" stroke-miterlimit="10" stroke-linecap="round" stroke-linejoin="round"/>
<path d="M450.754 851.372C450.754 851.372 587.976 808.889 779.153 924.444C779.153 924.444 831.832 1066.34 799.12 1088.01C766.408 1109.67 663.597 1111.8 591.8 1088.01C519.578 1064.64 426.963 947.81 450.754 851.372Z" fill="black"/>
<path d="M777.448 1043.4C768.526 1087.16 710.748 1113.5 613.461 1073.99C512.35 1033.2 468.592 935.915 457.546 907.026C517.448 794.869 475.814 717.124 475.814 717.124C613.886 705.229 734.539 866.667 734.539 866.667L753.232 946.536C754.932 953.333 758.33 959.281 763.428 963.529C772.35 979.248 782.971 1015.36 777.448 1043.4Z" fill="white"/>
<path d="M455.423 908.301C463.495 895.98 468.593 881.536 471.992 867.516C478.364 838.203 480.489 808.464 480.913 778.725V767.68C479.639 756.634 475.815 745.163 471.567 734.967C466.044 721.373 486.011 712.876 492.384 726.471C493.234 728.17 493.234 731.144 493.234 732.843C494.508 790.621 497.057 864.967 460.521 912.974C457.972 915.523 452.874 911.699 455.423 908.301Z" fill="black"/>
<path d="M739.212 865.817C745.585 869.641 747.709 874.739 748.559 879.837C751.108 890.033 750.258 901.079 752.807 911.7C754.931 921.896 761.304 931.667 763.003 942.288C765.128 953.334 771.5 976.7 774.049 988.17C774.899 990.719 773.199 993.693 770.226 994.118C768.526 994.543 767.252 994.118 765.977 993.268C760.454 988.595 757.905 983.922 754.507 977.974C748.984 967.778 745.16 958.432 741.762 946.961C738.788 936.765 740.062 925.719 737.513 915.098C735.389 904.902 729.441 895.131 727.317 884.51C726.043 879.412 725.618 873.889 729.441 867.517C731.99 864.968 736.239 864.118 739.212 865.817Z" fill="black"/>
<path d="M769.802 977.974C688.658 973.725 622.384 948.235 557.809 833.104C612.188 881.111 676.338 899.379 743.887 907.876L752.809 946.961C754.508 953.758 764.704 973.725 769.802 977.974Z" fill="black"/>
<path d="M766.405 962.255C780.85 989.444 789.347 1023.43 780.425 1053.59C773.628 1074.84 754.085 1090.56 732.843 1096.5C683.562 1109.67 626.634 1088.86 582.876 1065.49C528.922 1035.33 488.987 984.771 463.497 929.542C461.798 925.294 467.745 921.895 470.294 926.144C479.216 943.987 489.412 961.405 500.882 977.124C512.353 993.268 525.523 1008.14 540.392 1021.31C583.726 1060.39 642.353 1084.61 700.981 1084.61C761.307 1082.91 784.249 1051.05 770.229 992.418C768.105 983.072 764.706 973.301 760.033 965.229C757.484 961.83 763.856 958.006 766.405 962.255Z" fill="black"/>
<path d="M930.816 452.026C938.463 487.712 912.973 525.948 912.973 621.111C912.973 718.399 895.129 824.183 821.633 897.68C758.332 960.98 685.685 958.431 600.293 891.732C588.397 882.386 546.763 850.948 536.142 840.327C523.822 828.007 517.025 819.085 511.077 809.739C505.979 801.242 507.254 751.961 500.031 740.49C481.339 709.477 477.515 743.039 453.299 715.85C419.737 679.314 379.378 605.817 399.345 475.817C431.633 265.098 598.593 240.458 722.221 263.824C846.698 287.614 910.424 358.137 930.816 452.026Z" fill="white"/>
<path d="M474.541 753.66C464.77 737.516 452.449 723.072 440.979 708.202C429.508 692.484 420.162 675.915 412.515 658.072C369.181 553.137 375.554 415.915 452.449 327.549C505.129 267.222 588.397 247.255 664.868 251.503C741.338 256.176 820.783 275.719 877.286 330.948C909.998 362.81 930.815 405.294 940.162 449.477C943.136 463.497 941.011 478.791 937.613 491.961C927.842 528.921 918.495 564.183 917.645 602.418C918.07 659.346 916.371 717.549 899.802 772.353C887.907 808.889 873.887 845.425 851.796 877.287C828.855 909.575 794.443 935.49 754.933 943.137C675.489 959.281 601.142 909.15 548.462 854.771C546.338 852.222 549.312 849.248 551.861 850.948C582.024 873.889 613.038 895.131 646.6 909.575C743.462 954.183 823.757 912.974 866.24 819.51C901.926 751.536 912.123 678.039 909.149 601.993C909.149 582.876 909.998 563.758 912.547 544.64C915.096 517.026 924.443 489.412 924.018 462.222C916.796 418.039 896.404 375.555 865.815 342.843C793.168 265.948 653.822 243.431 556.109 278.268C440.979 319.052 409.966 435.033 403.593 545.915C399.345 612.189 418.887 677.189 469.018 722.647L488.985 743.464C495.783 752.81 481.338 763.856 474.541 753.66Z" fill="black"/>
<path d="M524.672 618.562C524.672 618.562 511.502 554.837 449.476 562.484C395.946 569.281 377.254 697.582 498.757 733.268" fill="white"/>
<path d="M493.234 677.614C483.463 672.092 476.666 662.745 476.241 651.275C476.666 642.778 477.94 633.007 475.816 624.51C474.541 616.438 466.045 614.314 459.672 614.739C452.875 616.013 448.626 624.51 447.352 631.307C447.352 631.732 446.927 633.007 446.927 633.431C446.502 635.556 443.103 635.556 442.254 633.431C436.731 616.863 449.051 598.595 466.894 600.719C491.96 602.418 495.358 628.758 490.685 648.726C488.136 657.222 491.535 664.869 496.208 672.092L497.058 673.366C499.182 675.915 495.783 679.314 493.234 677.614Z" fill="black"/>
<path d="M833.103 573.529C839.476 603.693 851.371 631.732 866.241 658.072C879.411 690.359 845.424 720.947 815.26 719.673C811.862 719.673 811.437 715 814.411 714.15C833.528 708.202 850.947 695.457 853.92 675.915C855.195 669.967 853.496 664.869 850.522 659.771C836.502 633.431 828.005 603.268 830.13 573.529C830.13 571.405 833.103 571.405 833.103 573.529Z" fill="black"/>
<path d="M522.549 618.987C512.777 593.921 491.536 570.13 463.072 570.555C460.523 570.13 456.274 570.98 453.725 570.98C446.503 571.405 440.555 573.954 435.032 579.052C407.843 606.241 412.516 654.248 434.608 684.411C442.255 695.032 452.026 704.379 463.072 712.026C474.117 719.673 486.438 725.621 499.608 730.719C502.581 731.568 501.307 736.241 498.333 735.817C469.869 729.869 442.679 715.849 423.987 692.483C395.098 657.647 389.15 599.444 423.562 565.457C431.209 558.66 441.83 553.562 452.451 553.562C455.849 553.562 460.947 552.712 464.346 553.562C482.189 554.411 499.183 563.333 510.228 577.353C520 589.248 525.523 603.692 527.222 618.137C527.222 620.686 523.398 621.536 522.549 618.987Z" fill="black"/>
<path d="M791.044 760.457C791.469 767.255 786.371 779.15 777.024 787.647C729.018 758.333 707.351 773.627 707.351 773.627C690.358 747.712 694.181 712.451 735.39 739.215C763.854 757.908 781.697 760.882 791.044 760.457Z" fill="black"/>
<path d="M776.599 788.072C766.403 796.993 751.109 802.516 730.292 794.019C720.521 790.196 712.873 782.549 706.926 774.052C707.351 774.052 728.592 758.758 776.599 788.072Z" fill="white"/>
<path d="M799.116 759.183C799.116 759.183 781.273 768.954 735.39 739.64C680.586 704.379 691.632 778.3 730.292 794.019C770.652 810.588 791.469 774.477 791.044 760.882" stroke="black" stroke-width="3" stroke-miterlimit="10" stroke-linecap="round" stroke-linejoin="round"/>
<path d="M707.354 774.052C707.354 774.052 729.02 758.758 777.027 788.072" stroke="black" stroke-width="3" stroke-miterlimit="10" stroke-linecap="round" stroke-linejoin="round"/>
<path d="M694.607 586.7C694.607 587.125 694.607 587.549 694.607 587.549L694.182 599.445C693.758 609.641 685.261 617.288 675.065 616.863C664.869 616.438 657.222 607.517 658.071 597.746L658.496 585.85C658.496 583.726 659.346 581.177 660.196 579.478L694.182 581.177C694.182 582.876 694.607 584.576 694.607 586.7Z" fill="black"/>
<path d="M872.187 596.046L871.763 607.092C871.338 616.438 863.266 623.66 853.919 623.236C844.573 622.811 837.351 614.739 837.776 605.392L838.2 594.347C838.2 592.222 838.625 590.098 839.475 588.399L871.338 589.673C871.763 591.798 872.187 593.922 872.187 596.046Z" fill="black"/>
<path d="M737.09 528.497C746.436 529.771 753.658 520 750.26 510.654C748.56 505.556 745.586 500.883 740.913 497.909C726.469 488.987 672.514 488.137 644.05 508.53C618.56 527.222 694.606 522.549 737.09 528.497Z" fill="black"/>
<path d="M854.769 533.17C847.122 533.17 842.449 523.399 846.273 515.327C848.397 511.079 851.371 507.255 855.619 505.131C868.789 498.758 904.05 502.582 919.769 524.249C933.789 543.366 890.031 532.745 854.769 533.17Z" fill="black"/>
<path d="M721.793 586.699L651.695 585.425C643.199 585 643.623 572.255 652.12 572.68L722.218 577.778C728.166 578.203 727.741 586.699 721.793 586.699Z" fill="black"/>
<path d="M890.032 593.921L838.202 594.771C829.706 594.771 829.281 582.451 837.777 582.026C838.202 582.026 838.202 582.026 838.627 582.026L890.457 587.549C894.281 587.974 893.856 593.496 890.032 593.921Z" fill="black"/>
<path d="M644.477 243.006C393.399 237.908 367.909 448.202 383.628 573.529C401.046 712.875 484.314 767.679 484.314 767.679L489.837 730.719C489.837 730.719 469.869 723.921 450.752 709.902C384.477 659.771 404.87 568.431 449.902 562.908C494.935 556.96 514.477 589.673 521.275 607.516C545.066 528.921 511.504 509.379 545.066 453.725C650 340.294 723.072 416.764 774.477 431.633C830.556 447.352 867.517 429.509 888.334 409.542C903.203 395.098 922.321 422.287 922.321 422.287C922.321 422.287 894.706 248.104 644.477 243.006Z" fill="black"/>
<path d="M871.344 656.797C859.873 642.778 845.004 633.006 827.161 632.581C808.468 632.157 779.154 636.405 749.841 659.771C711.605 690.359 635.135 685.686 604.971 682.712C596.475 681.863 588.403 686.111 584.579 693.758C576.082 710.751 564.612 746.013 570.135 802.941C577.357 880.686 640.658 951.209 729.873 945.261C847.128 938.039 915.527 843.725 919.775 717.549C918.926 682.712 898.109 689.934 871.344 656.797Z" fill="white"/>
<path d="M867.944 659.346C858.173 647.026 844.578 637.255 828.435 636.405C801.67 635.13 774.905 644.902 753.663 661.895C748.141 666.143 741.768 670.392 735.395 673.79C700.559 690.359 660.199 691.209 622.389 689.509C614.742 689.509 606.67 687.385 598.598 688.235C593.5 689.085 589.252 693.333 587.127 698.431C568.859 740.915 568.435 801.666 585.003 845C598.598 879.836 624.938 909.575 658.5 926.143C684.84 939.313 715.428 942.712 744.742 938.888C750.265 938.464 763.435 935.49 768.958 934.64C771.931 933.79 785.526 929.542 788.5 928.692C791.049 927.843 797.422 924.869 799.546 924.019C860.722 897.254 898.108 833.954 908.304 769.804C910.428 759.183 911.703 748.137 912.552 737.091C912.977 726.045 915.101 715 912.127 705.653C909.578 695.457 900.657 690.784 892.585 683.987C883.663 676.339 875.167 668.268 867.944 659.346ZM874.317 654.248C884.938 667.843 899.382 674.64 912.552 685.686C927.422 698.006 924.448 720.522 923.173 737.091C923.173 741.764 921.474 748.987 921.049 754.085C913.827 804.215 893.435 853.496 858.598 890.882C810.167 942.287 729.448 966.503 661.899 940.588C597.748 915.098 561.637 848.823 562.487 781.699C562.062 753.235 565.461 724.346 576.507 697.581C577.356 695.457 578.206 693.758 579.056 691.634C583.304 682.712 592.65 676.764 602.422 677.189C631.31 680.163 660.624 681.437 689.088 677.189C710.755 674.215 731.997 668.268 748.565 654.673C774.48 634.706 814.415 620.686 846.278 632.581C857.748 637.679 866.67 645.326 874.317 654.248Z" fill="black"/>
<path d="M715.425 680.589C759.608 696.732 844.575 729.445 889.608 718.399C897.255 716.275 903.203 711.602 906.602 703.955C907.451 701.406 911.275 702.68 910.85 704.804C899.804 756.634 794.445 717.125 762.157 705.229C745.589 698.857 729.445 692.059 713.726 683.987C711.177 683.562 712.876 679.739 715.425 680.589Z" fill="black"/>
<path d="M643.205 738.366C716.701 771.928 823.335 818.235 902.355 785.523C904.479 784.673 906.603 787.222 904.904 788.921C856.473 835.229 755.361 798.693 702.257 774.902C681.015 765.131 660.623 754.51 641.08 742.189C638.956 740.915 640.655 737.091 643.205 738.366Z" fill="black"/>
<path d="M637.681 811.863C667.42 833.954 702.257 849.673 737.943 858.595C759.185 863.693 781.276 867.091 803.368 866.667C823.335 867.091 842.878 863.693 862.845 864.542C864.119 864.542 864.969 865.392 864.969 866.667C864.969 867.516 864.544 868.366 863.695 868.366C859.021 870.49 853.923 872.19 849.25 873.464C834.381 878.137 818.662 878.987 803.368 878.562C757.061 878.562 711.178 864.967 671.668 841.176C658.498 833.105 646.178 824.608 634.708 813.987C633.008 813.137 635.557 810.163 637.681 811.863Z" fill="black"/>
<path d="M662.321 691.209C647.877 717.124 642.779 747.713 639.38 777.026C633.433 826.307 644.054 877.288 666.145 921.896C667.42 924.02 664.021 926.569 662.321 924.02C631.308 870.491 621.537 805.915 635.982 745.589C639.38 730.719 644.054 715.85 650.851 701.83C653.4 697.157 655.524 692.909 658.923 688.66C659.773 687.811 661.047 687.386 661.897 688.236C662.746 689.085 663.171 690.36 662.321 691.209Z" fill="black"/>
<path d="M597.746 698.856C572.256 678.889 551.014 655.523 532.322 629.183C525.949 620.686 520.851 611.34 515.328 602.418C514.478 601.144 514.903 599.02 516.603 598.17C517.877 597.32 520.001 597.745 520.851 599.444C537.42 625.784 557.812 649.15 581.178 669.543C588.825 676.34 597.322 683.137 605.394 688.66C612.191 693.333 604.969 703.954 597.746 698.856Z" fill="black"/>
<path d="M496.211 731.993C513.204 783.399 548.89 826.307 592.224 858.17C599.021 863.268 591.374 873.464 584.577 868.366C541.243 833.954 505.557 787.647 490.263 733.693C488.988 729.869 494.936 727.745 496.211 731.993Z" fill="black"/>
<path d="M1224.38 358.137C1482.25 854.771 1028.95 1415.13 488.562 1278.33C245.98 1218.01 50.9803 1007.71 10.6208 760.882C-35.2615 515.327 75.6208 251.503 282.941 112.582C567.157 -82.8433 960.98 -17.8433 1164.48 261.699C1165.75 262.974 1165.33 265.098 1163.63 266.372C1162.35 267.647 1160.23 267.222 1158.95 265.523C1130.91 229.412 1099.05 196.699 1064.22 167.385C1006.86 118.529 939.738 80.2939 868.791 54.3789C507.68 -76.4708 111.307 141.046 32.2875 518.725C-56.9282 941.863 302.908 1331.44 731.993 1273.24C1062.94 1231.6 1308.92 926.144 1281.73 593.921C1275.78 513.627 1254.54 434.183 1219.28 361.111C1218.43 359.836 1219.28 358.137 1220.56 357.287C1221.83 356.438 1223.53 356.863 1224.38 358.137Z" fill="black"/>
</g>
</svg>
