<svg width="16" height="16" viewBox="0 0 16 16" fill="none" xmlns="http://www.w3.org/2000/svg">
<g clip-path="url(#clip0_26_39)">
<path d="M10.7329 6.22066L7.92036 4.55659C7.84811 4.51379 7.76567 4.49125 7.6817 4.49133C7.59773 4.49142 7.51533 4.51412 7.44317 4.55706L4.63067 6.22112C4.56055 6.26248 4.50243 6.32143 4.46206 6.39213C4.4217 6.46283 4.40048 6.54284 4.40051 6.62425V9.85862C4.40051 10.0246 4.48817 10.1778 4.63067 10.2617L7.44317 11.9258C7.51524 11.9691 7.59771 11.9919 7.68176 11.9919C7.76582 11.9919 7.84829 11.9691 7.92036 11.9258L10.7329 10.2617C10.803 10.2204 10.8611 10.1614 10.9015 10.0907C10.9418 10.02 10.963 9.94004 10.963 9.85862V6.62425C10.963 6.54278 10.9418 6.4627 10.9015 6.39193C10.8611 6.32116 10.803 6.26213 10.7329 6.22066ZM10.0255 9.59144L7.68176 10.978L5.33801 9.59144V6.89144L7.68176 5.50487L10.0255 6.89144V9.59144Z" fill="#EEEEEE"/>
<path d="M2.99426 9.73396V5.46177L5.90051 3.74427L5.42379 2.93708L2.28692 4.79099C2.21679 4.83246 2.15868 4.89149 2.11832 4.96226C2.07796 5.03304 2.05674 5.11311 2.05676 5.19458V9.73396C1.78337 9.83032 1.5465 10.0089 1.37865 10.2453C1.2108 10.4816 1.12019 10.7641 1.11926 11.054C1.11926 11.8293 1.7502 12.4602 2.52551 12.4602C3.30083 12.4602 3.93176 11.8293 3.93176 11.054C3.93083 10.7641 3.84023 10.4816 3.67238 10.2453C3.50452 10.0089 3.26765 9.83032 2.99426 9.73396ZM2.52551 11.5227C2.40482 11.5173 2.29086 11.4656 2.20736 11.3782C2.12386 11.2909 2.07726 11.1748 2.07726 11.054C2.07726 10.9331 2.12386 10.817 2.20736 10.7297C2.29086 10.6423 2.40482 10.5906 2.52551 10.5852C2.64621 10.5906 2.76017 10.6423 2.84366 10.7297C2.92716 10.817 2.97376 10.9331 2.97376 11.054C2.97376 11.1748 2.92716 11.2909 2.84366 11.3782C2.76017 11.4656 2.64621 11.5173 2.52551 11.5227ZM12.838 9.64771C12.0627 9.64771 11.4318 10.2786 11.4318 11.054C11.4318 11.2194 11.4655 11.376 11.5185 11.5236L7.68176 13.7905L4.67989 12.0168L4.20317 12.824L7.44317 14.7383C7.51533 14.7813 7.59773 14.804 7.6817 14.8041C7.76567 14.8041 7.84811 14.7816 7.92036 14.7388L12.1204 12.2568C12.3313 12.3829 12.575 12.4602 12.838 12.4602C13.6133 12.4602 14.2443 11.8293 14.2443 11.054C14.2443 10.2786 13.6133 9.64771 12.838 9.64771ZM12.838 11.5227C12.7173 11.5173 12.6034 11.4656 12.5199 11.3782C12.4364 11.2909 12.3898 11.1748 12.3898 11.054C12.3898 10.9331 12.4364 10.817 12.5199 10.7297C12.6034 10.6423 12.7173 10.5906 12.838 10.5852C12.9587 10.5906 13.0727 10.6423 13.1562 10.7297C13.2397 10.817 13.2863 10.9331 13.2863 11.054C13.2863 11.1748 13.2397 11.2909 13.1562 11.3782C13.0727 11.4656 12.9587 11.5173 12.838 11.5227ZM7.68176 3.55396C8.02442 3.55396 8.33426 3.42599 8.57848 3.22208L12.3693 5.46224V8.71021H13.3068V5.19458C13.3068 5.11311 13.2856 5.03304 13.2452 4.96226C13.2048 4.89149 13.1467 4.83246 13.0766 4.79099L9.06082 2.41817C9.0777 2.33052 9.08801 2.24052 9.08801 2.14771C9.08801 1.37239 8.45708 0.741455 7.68176 0.741455C6.90645 0.741455 6.27551 1.37239 6.27551 2.14771C6.27551 2.92302 6.90645 3.55396 7.68176 3.55396ZM7.68176 1.67896C7.77461 1.67886 7.86539 1.70631 7.94262 1.75784C8.01986 1.80936 8.08007 1.88264 8.11564 1.96839C8.15122 2.05415 8.16055 2.14854 8.14246 2.2396C8.12437 2.33066 8.07967 2.41431 8.01402 2.47996C7.94837 2.54561 7.86472 2.59031 7.77366 2.6084C7.68259 2.62649 7.58821 2.61716 7.50245 2.58159C7.4167 2.54601 7.34342 2.4858 7.29189 2.40857C7.24037 2.33133 7.21292 2.24055 7.21301 2.14771C7.21301 1.88896 7.42348 1.67896 7.68176 1.67896Z" fill="#EEEEEE"/>
</g>
<defs>
<clipPath id="clip0_26_39">
<rect width="15" height="15" fill="white" transform="translate(0.181763 0.272705)"/>
</clipPath>
</defs>
</svg>
