<svg width="26" height="26" viewBox="0 0 26 26" fill="none" xmlns="http://www.w3.org/2000/svg">
<path d="M13 1C6.3724 1 1 6.3724 1 13C1 19.6276 6.3724 25 13 25C19.6276 25 25 19.6276 25 13C25 6.3724 19.6276 1 13 1Z" stroke="#060606" stroke-width="1.6" stroke-linecap="round" stroke-linejoin="round"/>
<path d="M3.72519 20.6152C3.72519 20.6152 6.39999 17.2 13 17.2C19.6 17.2 22.276 20.6152 22.276 20.6152M13 13C13.9548 13 14.8704 12.6207 15.5456 11.9456C16.2207 11.2705 16.6 10.3548 16.6 9.4C16.6 8.44522 16.2207 7.52955 15.5456 6.85442C14.8704 6.17929 13.9548 5.8 13 5.8C12.0452 5.8 11.1295 6.17929 10.4544 6.85442C9.77927 7.52955 9.39999 8.44522 9.39999 9.4C9.39999 10.3548 9.77927 11.2705 10.4544 11.9456C11.1295 12.6207 12.0452 13 13 13V13Z" stroke="#060606" stroke-width="1.6" stroke-linecap="round" stroke-linejoin="round"/>
</svg>
